<?xml version="1.0" encoding="UTF-8"?>
<svg version="1.1" xmlns="http://www.w3.org/2000/svg" width="3017" height="695">
<path d="M0 0 C28.38 0 56.76 0 86 0 C92.59444994 19.19059027 99.14614402 38.39254027 105.55859375 57.64453125 C105.92295627 58.73838166 105.92295627 58.73838166 106.29467964 59.85433006 C108.735579 67.18360956 111.17323026 74.51396181 113.60600376 81.8459425 C118.94491778 97.93338669 124.35065794 113.99574903 129.84375 130.03125 C134.62173638 143.98053274 139.34462996 157.94680179 144 171.9375 C144.28852341 172.80451035 144.57704681 173.67152069 144.87431335 174.56480408 C147.210597 181.58742445 149.54288329 188.611371 151.875 195.63537598 C159.99489774 220.08909145 168.21002815 244.50697829 176.56405926 268.88175869 C198.82639709 333.86847249 217.92773568 399.69164141 234.93579102 466.23486328 C235.10316835 466.88951789 235.27054569 467.5441725 235.44299507 468.21866512 C236.2321962 471.30651418 237.01967055 474.39478759 237.80462646 477.48371887 C238.08026428 478.56537827 238.3559021 479.64703766 238.63989258 480.76147461 C238.99957878 482.1774015 238.99957878 482.1774015 239.36653137 483.62193298 C239.84879097 485.43235515 240.40753036 487.22259108 241 489 C240.86631767 487.91746696 240.86631767 487.91746696 240.72993469 486.81306458 C234.05259268 432.65404844 228.0109532 378.50877628 225 324 C224.95433683 323.1773282 224.90867365 322.35465641 224.86162674 321.50705516 C223.99112917 305.2966841 223.859495 289.11360989 223.88393438 272.8830508 C223.88833013 269.20584755 223.88678612 265.52864557 223.8860321 261.85144043 C223.88551254 255.50903457 223.88859929 249.16663915 223.89426994 242.82423592 C223.90246292 233.65464724 223.90500807 224.48506352 223.90625793 215.31547158 C223.90843633 200.43158433 223.91506323 185.54770261 223.92456055 170.66381836 C223.93376624 156.22176135 223.94083156 141.77970585 223.94506836 127.33764648 C223.94533108 126.44460346 223.94559381 125.55156043 223.94586449 124.63145549 C223.94716971 120.15047464 223.94843337 115.66949379 223.94967639 111.18851292 C223.96001118 74.12567036 223.97842888 37.06283806 224 0 C254.36 0 284.72 0 316 0 C316 223.41 316 446.82 316 677 C287.29 677 258.58 677 229 677 C224.58753906 663.74521484 224.58753906 663.74521484 220.0859375 650.22265625 C218.19027486 644.53054203 216.29453154 638.83845488 214.3984375 633.14648438 C211.40730171 624.16721067 208.41645045 615.1878431 205.42773438 606.20776367 C192.46515321 567.18306653 192.46515321 567.18306653 179.25390625 528.2421875 C169.6345502 500.22988481 160.27779746 472.12816197 150.89796448 444.03496838 C147.93881567 435.17238558 144.97679003 426.3107909 142.0065918 417.4519043 C121.43704246 356.09349545 102.20927158 294.67228056 86.6875 231.8125 C86.40342789 230.67214798 86.40342789 230.67214798 86.11361694 229.50875854 C81.88170039 212.4555072 78.48556836 195.21760501 75 178 C75.06628601 178.9492485 75.13257202 179.89849701 75.2008667 180.87651062 C78.07682036 222.09443605 80.93889056 263.31210474 83.3125 304.5625 C83.394072 305.97276882 83.4756555 307.38303698 83.55725098 308.79330444 C83.78737902 312.77999861 84.01342533 316.76691112 84.23828125 320.75390625 C84.3015712 321.86522919 84.36486115 322.97655212 84.43006897 324.12155151 C84.63088382 327.74718408 84.81699489 331.37343734 85 335 C85.05722975 336.11485222 85.05722975 336.11485222 85.11561567 337.25222671 C85.96146147 354.04182795 86.29059069 370.8318381 86.53878057 387.63872302 C86.5970719 391.53682434 86.65915324 395.43486576 86.72073364 399.33291626 C86.82648034 406.05834335 86.92991872 412.78380261 87.03170967 419.5092907 C87.17887891 429.23276465 87.32965314 438.95618019 87.48125803 448.67958588 C87.72723601 464.46188949 87.970369 480.24423556 88.21166992 496.02661133 C88.44583316 511.34173912 88.68136297 526.6568449 88.91870117 541.97192383 C88.93337343 542.91873278 88.94804568 543.86554173 88.96316255 544.84104186 C89.03679017 549.59173634 89.11044434 554.34243041 89.18411171 559.09312427 C89.79352356 598.39535357 90.39776826 637.6976599 91 677 C60.97 677 30.94 677 0 677 C0 453.59 0 230.18 0 0 Z M73 169 C74 172 74 172 74 172 Z M242 496 C243 499 243 499 243 499 Z " fill="#000000" transform="translate(2321,9)"/>
<path d="M0 0 C149.4695987 0 149.4695987 0 167.25 4.25 C168.62973999 4.5742395 168.62973999 4.5742395 170.03735352 4.9050293 C178.07649534 6.87495966 185.50364302 9.47721309 193 13 C193.61391602 13.28713867 194.22783203 13.57427734 194.86035156 13.87011719 C225.6614809 28.53354726 245.6717275 55.78871817 257.07714844 87.33056641 C276.34332648 143.0597703 279.38883878 223.11898117 254.65625 277.7578125 C249.77583716 287.31145085 243.38342864 295.27850229 236 303 C235.46117187 303.60199219 234.92234375 304.20398438 234.3671875 304.82421875 C224.59832459 315.35397299 211.86094883 322.04823868 199 328 C198.0409375 328.45632813 197.081875 328.91265625 196.09375 329.3828125 C190.45673077 332 190.45673077 332 187 332 C187 332.66 187 333.32 187 334 C188.25425781 334.38027344 189.50851562 334.76054687 190.80078125 335.15234375 C196.55367147 337.07596993 201.82778549 339.74345549 207.1875 342.5625 C208.1983667 343.09335205 209.2092334 343.6242041 210.25073242 344.17114258 C222.46700715 350.70556533 232.96982094 358.41408782 243 368 C243.74636719 368.67160156 244.49273438 369.34320313 245.26171875 370.03515625 C271.90910854 394.91535439 278.37827188 435.35717349 280 470 C280.20491186 476.47804433 280.24556454 482.95661438 280.25 489.4375 C280.25067474 490.33162598 280.25134949 491.22575195 280.25204468 492.14697266 C280.19101041 543.50245944 271.69432771 596.83388358 236 636 C235.35804688 636.72445312 234.71609375 637.44890625 234.0546875 638.1953125 C216.7054959 656.74617971 192.61753612 666.80872059 168.4375 672.75 C167.23528809 673.04825684 167.23528809 673.04825684 166.00878906 673.35253906 C112.09550238 685.88001859 55.3496181 677 0 677 C0 453.59 0 230.18 0 0 Z M87 75 C86.90206102 77.86994648 86.87007709 80.71583055 86.87974548 83.5861969 C86.87889106 84.4976835 86.87803663 85.4091701 86.87715632 86.34827751 C86.87549872 89.42694734 86.88102744 92.50556364 86.88647461 95.58422852 C86.88675645 97.7813924 86.88659882 99.97855638 86.8860321 102.17572021 C86.88574399 108.16101549 86.89164287 114.14629091 86.89860606 120.13158154 C86.90483739 126.3789747 86.90544322 132.62636826 86.90663147 138.87376404 C86.90939116 149.36628542 86.91564666 159.85880063 86.92456055 170.35131836 C86.93373399 181.16056278 86.94081515 191.96980521 86.94506836 202.77905273 C86.94533108 203.44489002 86.94559381 204.11072732 86.94586449 204.79674149 C86.94716949 208.13691874 86.94843096 211.47709599 86.94967639 214.81727326 C86.96014227 242.54485394 86.97774298 270.27242646 87 298 C89.05312647 298.01211939 91.10627397 298.02070388 93.15942383 298.02783203 C94.30276688 298.03299835 95.44610992 298.03816467 96.62409973 298.04348755 C118.90906742 297.75641787 141.17494547 291.94652447 157.6796875 276.4765625 C178.62666503 254.11901409 180.57263547 216.80059925 180.39111328 187.91064453 C180.37496477 184.86836216 180.39112087 181.82740022 180.41015625 178.78515625 C180.4430776 148.35556572 175.67190568 115.81605029 153.91796875 92.796875 C136.56144909 76.4098186 114.86660434 73.62703422 91.98046875 73.83203125 C88.23402753 73.54041716 88.23402753 73.54041716 87 75 Z M87 371 C87 445.91 87 520.82 87 598 C114.1498144 598 142.22314421 595.76560238 162.9765625 576.2109375 C173.76679174 564.42084146 179.05231517 548.42851758 182 533 C182.15098145 532.22156738 182.30196289 531.44313477 182.45751953 530.64111328 C187.62061584 502.34155302 187.37935385 470.24017246 182 442 C181.85546387 441.21641113 181.71092773 440.43282227 181.56201172 439.62548828 C177.64835201 419.12970007 169.46913266 399.38616545 151.99609375 386.84375 C132.32270944 374.15429875 109.99901829 371 87 371 Z " fill="#000000" transform="translate(823,9)"/>
<path d="M0 0 C30.03 0 60.06 0 91 0 C91.00586624 6.34553604 91.01173248 12.69107208 91.01777649 19.22889709 C91.05756251 61.19422864 91.10069198 103.15955254 91.15898132 145.12486267 C91.15997689 145.84236852 91.16097246 146.55987438 91.16199819 147.29912283 C91.18366353 162.89751525 91.20598671 178.49590667 91.22898628 194.09429717 C91.24026347 201.74523765 91.25139549 209.39617834 91.26245117 217.04711914 C91.26355374 217.80842507 91.2646563 218.569731 91.26579228 219.3541068 C91.30137498 243.97034503 91.32739713 268.58658191 91.34838969 293.20283654 C91.3700376 318.52774988 91.40147388 343.85263306 91.44499113 369.17751871 C91.45115216 372.76555163 91.45720284 376.35358474 91.46318626 379.94161797 C91.46436715 380.6477009 91.46554803 381.35378383 91.46676469 382.08126322 C91.48538813 393.38563152 91.49388324 404.68998516 91.49846124 415.99436692 C91.50329965 427.39640516 91.51935191 438.79837762 91.54566566 450.20039041 C91.55957123 456.3630915 91.56889297 462.52570161 91.56500816 468.68841934 C88.50488278 529.97575386 88.50488278 529.97575386 111 584 C123.57170879 596.17730224 140.53663541 598.3931133 157.3125 598.3125 C158.50222412 598.30831055 159.69194824 598.30412109 160.91772461 598.29980469 C169.31914684 598.19168864 176.96075582 597.60489476 185 595 C186.35351562 594.58234375 186.35351562 594.58234375 187.734375 594.15625 C198.83302102 590.25490776 205.8124022 583.14010239 211.11328125 572.8359375 C221.96859518 548.44291546 221.14625553 518.68805282 221.15821838 492.5625 C221.1627933 490.4285428 221.16779466 488.29458648 221.17318195 486.16063118 C221.18666667 480.33637379 221.19415313 474.51212218 221.20060861 468.68785334 C221.20865541 462.39222703 221.22233827 456.09661259 221.23532104 449.80099487 C221.25702341 438.90653832 221.27522458 428.01208142 221.29092598 417.11761475 C221.30739828 405.69854273 221.325894 394.27947691 221.34705925 382.8604126 C221.34837686 382.14893019 221.34969446 381.43744778 221.351052 380.70440529 C221.3577546 377.09076549 221.36449303 373.47712576 221.37124526 369.86348605 C221.41893762 344.30515557 221.46214281 318.7468193 221.50268555 293.18847656 C221.54206893 268.36750874 221.5834995 243.5465457 221.62768555 218.72558594 C221.62904808 217.95974562 221.63041061 217.1939053 221.63181442 216.4048577 C221.64550045 208.71358398 221.65922793 201.02231035 221.67298577 193.33103676 C221.70100812 177.66470202 221.72875394 161.99836678 221.7563324 146.33203125 C221.7576006 145.61180658 221.7588688 144.89158192 221.76017542 144.14953226 C221.84475172 96.09969589 221.92266088 48.0498485 222 0 C251.7 0 281.4 0 312 0 C312.05079281 49.47664824 312.0991834 98.9532952 312.12702942 148.42996216 C312.12744359 149.16397069 312.12785776 149.89797922 312.12828448 150.65423044 C312.13726631 166.6119161 312.14557641 182.56960205 312.15319599 198.52728843 C312.15693751 206.35461813 312.16082724 214.18194775 312.16479492 222.00927734 C312.1651872 222.78812911 312.16557948 223.56698087 312.16598364 224.3694342 C312.17873377 249.54674073 312.20124213 274.72402686 312.22889166 299.90132106 C312.25728832 325.80641501 312.27567913 351.7114977 312.28174497 377.61660694 C312.28260925 381.28800537 312.28358615 384.95940377 312.28463173 388.63080215 C312.284834 389.35328062 312.28503627 390.07575909 312.28524467 390.82013085 C312.28876935 402.38055667 312.30262761 413.94094736 312.3204961 425.50135894 C312.33829918 437.16555532 312.34462874 448.82971434 312.34050413 460.49392377 C312.33859832 466.79675527 312.34134654 473.09948496 312.35761642 479.40229797 C312.67153381 607.46492929 312.67153381 607.46492929 273.51171875 647.546875 C240.72763991 678.82531467 193.25369834 686.9411973 149.5 686.1875 C113.19108241 685.14861824 76.53210829 677.86167389 48 654 C47.154375 653.31679688 46.30875 652.63359375 45.4375 651.9296875 C12.49292943 624.0297543 5.91734631 579.4618716 2.09008789 538.85302734 C-0.21978292 509.91158536 -0.14223583 480.9751251 -0.11606562 451.96442795 C-0.11170165 445.88439186 -0.11321172 439.80435667 -0.1139679 433.72431946 C-0.1144894 423.21909211 -0.1114173 412.7138703 -0.10573006 402.20864487 C-0.09978859 391.20534103 -0.09595921 380.20203971 -0.09487724 369.19873428 C-0.0948085 368.51150716 -0.09473976 367.82428005 -0.09466894 367.11622786 C-0.09433055 363.62535847 -0.09402919 360.13448907 -0.09374207 356.64361967 C-0.09164834 331.99483329 -0.08492979 307.34605017 -0.07543945 282.69726562 C-0.06623732 258.7692059 -0.05916241 234.84114708 -0.05493164 210.91308594 C-0.05480011 210.17395983 -0.05466859 209.43483372 -0.05453308 208.67330985 C-0.05321442 201.24989021 -0.05193863 193.82647056 -0.05069422 186.40305091 C-0.04815882 171.28417297 -0.04533757 156.16529509 -0.04234314 141.04641724 C-0.04220585 140.35145878 -0.04206856 139.65650032 -0.04192711 138.94048252 C-0.03274508 92.62698668 -0.01625632 46.31349402 0 0 Z " fill="#000000" transform="translate(381,9)"/>
<path d="M0 0 C23.76 0 47.52 0 72 0 C76.50008078 18.00032313 76.50008078 18.00032313 77.81738281 24.13064575 C77.96528977 24.81540607 78.11319673 25.5001664 78.26558572 26.20567703 C78.74727966 28.43883149 79.22523558 30.67276687 79.703125 32.90673828 C80.05668719 34.54976071 80.41048113 36.19273328 80.76448345 37.83566093 C81.72666895 42.30452048 82.6855135 46.77409085 83.64372039 51.24380493 C84.68173937 56.08310423 85.72278366 60.92175286 86.76338196 65.76049805 C88.80090334 75.23745119 90.8353734 84.71505695 92.86876434 94.19289708 C94.53210344 101.94555101 96.19673387 109.69792673 97.8621521 117.45013428 C108.89209518 168.79376789 119.89369955 220.14343605 130.86328125 271.5 C131.1048689 272.63103323 131.34645656 273.76206645 131.59536505 274.92737341 C136.50016527 297.89062882 141.4024148 320.85442716 146.29911041 343.81941223 C158.0400828 398.88321656 169.86620628 453.92815556 181.75217885 508.96084046 C187.61763296 536.11825338 193.47614216 563.27716275 199.3210001 590.43901634 C201.05722051 598.50704671 202.7952232 606.57468697 204.53662109 614.64160156 C206.12271644 621.98911161 207.70597038 629.33722692 209.28569281 636.6861099 C210.10377118 640.49137374 210.92319193 644.29633571 211.74616623 648.10054398 C212.63910248 652.22835259 213.52567318 656.35750226 214.41162109 660.48681641 C214.67628174 661.70544876 214.94094238 662.92408112 215.21362305 664.17964172 C215.45108246 665.29144302 215.68854187 666.40324432 215.93319702 667.54873657 C216.14060202 668.51134714 216.34800701 669.47395771 216.56169701 670.4657383 C217 673 217 673 217 677 C186.97 677 156.94 677 126 677 C124.01996928 669.07987711 122.17648669 661.25310849 120.63989258 653.25219727 C120.42487595 652.14656937 120.20985931 651.04094147 119.98832703 649.90180969 C119.28703689 646.29065002 118.59055161 642.67858504 117.89453125 639.06640625 C117.40572639 636.5395975 116.91676616 634.0128188 116.42765808 631.48606873 C115.40763677 626.21224895 114.39006939 620.93796397 113.37426758 615.66333008 C112.20150892 609.57401199 111.02289484 603.48584764 109.84145623 597.3982082 C108.70055726 591.51822633 107.56484303 585.63725624 106.43118858 579.75587273 C105.94979468 577.26169957 105.46694489 574.76780695 104.98261452 572.27420235 C104.30793509 568.79765535 103.63916877 565.32002142 102.97192383 561.84204102 C102.77092072 560.81288574 102.5699176 559.78373047 102.36282349 558.72338867 C102.18204758 557.77464371 102.00127167 556.82589874 101.8150177 555.84840393 C101.65667859 555.02792352 101.49833948 554.2074431 101.33520222 553.36209965 C101 551 101 551 101 546 C56.78 546 12.56 546 -33 546 C-33.33 549.3 -33.66 552.6 -34 556 C-34.29555637 557.87801843 -34.61868881 559.75222587 -34.98669434 561.61740112 C-35.18014938 562.60982315 -35.37360443 563.60224518 -35.57292175 564.6247406 C-35.78282242 565.67654007 -35.99272308 566.72833954 -36.20898438 567.81201172 C-36.43185623 568.94821457 -36.65472809 570.08441742 -36.88435364 571.25505066 C-37.61635676 574.98082398 -38.35496186 578.70525419 -39.09375 582.4296875 C-39.6059682 585.02890806 -40.11783894 587.62819475 -40.62927246 590.22756958 C-41.6988266 595.65981103 -42.77178698 601.09137012 -43.84716797 606.52246094 C-45.36305962 614.17836013 -46.87234293 621.83555157 -48.38052273 629.49297309 C-49.55436045 635.45132161 -50.73031344 641.40925291 -51.90625 647.3671875 C-52.15674606 648.63690273 -52.40724213 649.90661797 -52.66532898 651.21480942 C-53.3727511 654.79821805 -54.08162414 658.38133626 -54.79101562 661.96435547 C-55.00091629 663.02830032 -55.21081696 664.09224518 -55.42707825 665.18843079 C-55.62053329 666.16393387 -55.81398834 667.13943695 -56.01330566 668.14450073 C-56.18069496 668.99062361 -56.34808426 669.83674648 -56.52054596 670.70850945 C-56.96175489 672.8172123 -57.47748948 674.90995793 -58 677 C-87.37 677 -116.74 677 -147 677 C-145.70144445 669.2086667 -144.33266293 661.53927912 -142.63452148 653.84082031 C-142.40363579 652.78255539 -142.17275009 651.72429047 -141.93486786 650.63395691 C-141.16636906 647.11473672 -140.39370003 643.59644551 -139.62109375 640.078125 C-139.06462172 637.53324488 -138.50844193 634.98830085 -137.95252991 632.44329834 C-136.75152958 626.94667516 -135.54854488 621.45048952 -134.34423828 615.95458984 C-132.40332983 607.09673751 -130.46677689 598.23793588 -128.53125 589.37890625 C-128.36635267 588.62417117 -128.20145535 587.86943609 -128.03156114 587.09183025 C-127.35701371 584.00436645 -126.68248906 580.91689767 -126.00802433 577.8294158 C-125.14581541 573.88250214 -124.28348827 569.93561439 -123.42089462 565.98878479 C-118.18070351 542.01201653 -112.95865599 518.03136143 -107.75390625 494.046875 C-107.49941373 492.87414319 -107.49941373 492.87414319 -107.23977995 491.67771983 C-105.17776084 482.17541542 -103.11646191 472.67295484 -101.05536211 463.17045099 C-97.7478923 447.92193507 -94.43875606 432.67378072 -91.12890625 417.42578125 C-90.95739941 416.63566186 -90.78589257 415.84554247 -90.60918856 415.03148007 C-83.38610635 381.75604371 -76.13832948 348.4860162 -68.88050842 315.21814156 C-68.29067055 312.51446993 -67.70085794 309.81079279 -67.11104548 307.10711563 C-66.07845704 302.37377097 -65.04585564 297.64042914 -64.01325417 292.90708733 C-63.27098961 289.50461934 -62.52873183 286.10214987 -61.78647661 282.69967985 C-61.33985867 280.65241213 -60.89323227 278.60514624 -60.44660568 276.5578804 C-53.13333493 243.03460234 -45.83004503 209.50915152 -38.53049469 175.98288345 C-37.84614689 172.83974378 -37.16175413 169.6966139 -36.47731781 166.5534935 C-29.41644748 134.12801813 -22.36082119 101.7014574 -15.34765625 69.265625 C-15.09374996 68.09151314 -14.83984367 66.91740128 -14.57824326 65.70771027 C-12.23719059 54.88188275 -9.89734499 44.05579883 -7.56354618 33.228405 C-6.75262384 29.46741912 -5.9404707 25.70669973 -5.12804985 21.94603729 C-4.75850204 20.23379562 -4.38956455 18.52142209 -4.02128792 16.80890656 C-3.52682977 14.50964994 -3.03038178 12.21083183 -2.53344727 9.91210938 C-2.25912369 8.63895874 -1.98480011 7.36580811 -1.7021637 6.05407715 C-1 3 -1 3 0 0 Z M34 141 C33.93228897 141.61400665 33.86457794 142.22801331 33.79481506 142.86062622 C24.47026678 227.16652138 10.94627436 310.75648279 -12.10546875 432.04296875 C-12.34454453 433.27716553 -12.5836203 434.5113623 -12.8299408 435.78295898 C-13.92988694 441.45821379 -15.03587242 447.13210906 -16.15698242 452.80322266 C-16.53966064 454.76072071 -16.92223591 456.7182389 -17.3046875 458.67578125 C-17.56604744 459.9778376 -17.56604744 459.9778376 -17.83268738 461.30619812 C-18.06608574 462.50874992 -18.06608574 462.50874992 -18.30419922 463.7355957 C-18.43962128 464.41983109 -18.57504333 465.10406647 -18.71456909 465.80903625 C-19.06749911 468.51812223 -19 471.26802152 -19 474 C15.98 474 50.96 474 87 474 C86.24991078 466.96262747 86.24991078 466.96262747 85.14979553 460.03153992 C84.90439765 458.717054 84.90439765 458.717054 84.65404224 457.3760128 C84.38842 455.98078612 84.38842 455.98078612 84.11743164 454.55737305 C83.92832812 453.5490423 83.73922461 452.54071156 83.54439068 451.50182533 C83.13424312 449.31684154 82.72260243 447.1321376 82.30962372 444.94768715 C81.64775355 441.44610304 80.9899718 437.94377282 80.33331299 434.44120789 C79.39685144 429.44674496 78.4591596 424.45251548 77.5206604 419.45843506 C61.2916057 333.03360077 47.56697172 246.63082191 37.68920898 159.25073242 C37.56851044 158.19058929 37.44781189 157.13044617 37.32345581 156.03817749 C37.11023286 154.03540262 36.92046923 152.0299712 36.75588989 150.02261353 C36.644814 148.67011002 36.644814 148.67011002 36.53149414 147.2902832 C36.44732994 146.11366875 36.44732994 146.11366875 36.36146545 144.9132843 C36.14195983 142.76626097 36.14195983 142.76626097 34 141 Z " fill="#000000" transform="translate(2005,9)"/>
<path d="M0 0 C0.82064941 0.30768311 1.64129883 0.61536621 2.48681641 0.93237305 C8.98845993 3.48192065 14.49727319 6.58942174 20.75 10 C20.75 39.7 20.75 69.4 20.75 100 C16.77990604 98.41196241 14.44377512 97.21377036 11.13671875 94.7578125 C-12.77340945 77.67346188 -41.38956957 67.67516349 -70.7734375 72.31640625 C-91.85918783 76.46248075 -108.39936022 89.04086554 -120.859375 106.21875 C-135.82330264 129.35884428 -137.83144125 160.44296375 -132.28125 186.83984375 C-127.88451728 205.39946452 -119.15248264 221.17882162 -107.25 236 C-106.51910156 236.92296875 -105.78820313 237.8459375 -105.03515625 238.796875 C-100.41548333 244.54507962 -95.56198721 250.03811482 -90.5703125 255.46484375 C-88.67718797 257.53325758 -86.82748296 259.62405876 -85 261.75 C-75.02886884 273.16855343 -64.41215429 283.94885023 -53.62255859 294.59057617 C-49.21759335 298.95189909 -44.98882119 303.36707795 -40.95483398 308.07250977 C-37.8848005 311.54349851 -34.55678237 314.75656596 -31.25 318 C-26.00351354 323.14597906 -21.02609284 328.41430293 -16.25 334 C-15.28830046 335.10593859 -14.32608786 336.21143132 -13.36328125 337.31640625 C2.74420388 355.93518183 18.26994635 375.19779115 29.74414062 397.08642578 C30.7526106 399.00496647 31.78950468 400.90624274 32.828125 402.80859375 C47.91348853 431.01368473 52.65277424 463.4027668 53.75 495 C53.79253906 496.11117188 53.83507813 497.22234375 53.87890625 498.3671875 C54.85248315 550.42109909 39.53374407 600.84275994 3.27734375 638.86010742 C-22.76019754 665.54043483 -58.79397452 681.34615417 -96.25 682 C-97.21534668 682.02852051 -97.21534668 682.02852051 -98.20019531 682.05761719 C-128.8336319 682.91834479 -157.91254724 677.12428946 -185.1875 663.0625 C-185.93225586 662.68005127 -186.67701172 662.29760254 -187.44433594 661.90356445 C-188.89389842 661.12829535 -190.3246277 660.31651327 -191.73165894 659.4664917 C-194.25360431 657.94143909 -194.25360431 657.94143909 -197.06747437 656.71910095 C-201.01739203 654.56553476 -204.48270986 652.51362368 -205.86245155 647.99362373 C-206.83562199 641.73437764 -206.50960263 635.4026066 -206.32421875 629.09375 C-206.30368408 627.0425637 -206.28803463 624.99132318 -206.27705383 622.94006348 C-206.23519435 617.55950083 -206.12727546 612.18224195 -206.00531006 606.80297852 C-205.8924697 601.306607 -205.84247805 595.80969771 -205.78710938 590.3125 C-205.66938775 579.54022064 -205.48183035 568.77038577 -205.25 558 C-203.82388871 558.78151159 -202.39909711 559.56543164 -200.97485352 560.3503418 C-200.18127945 560.78662399 -199.38770538 561.22290619 -198.57008362 561.67240906 C-195.30944175 563.53820328 -192.26455514 565.66306441 -189.1875 567.8125 C-181.55934052 573.00605785 -173.60755102 577.11848641 -165.25 581 C-163.54070313 581.81791016 -163.54070313 581.81791016 -161.796875 582.65234375 C-138.48443407 593.3055871 -110.58897278 597.53127117 -86.046875 588.5234375 C-77.73066881 585.22848291 -70.84333863 581.12590044 -64.25 575 C-63.33734375 574.22269531 -63.33734375 574.22269531 -62.40625 573.4296875 C-47.19655292 559.67182514 -39.87449605 536.87360117 -38.25 517 C-35.98877193 462.37187898 -56.8676485 426.06268942 -92.78808594 386.69799805 C-94.40568614 384.92527891 -96.01784912 383.14758009 -97.62402344 381.36450195 C-107.08862423 370.95845521 -117.07929328 361.09283604 -127.0625 351.1875 C-130.53031439 347.74646164 -133.99466455 344.30198755 -137.45703125 340.85546875 C-138.23633499 340.08446335 -139.01563873 339.31345795 -139.81855774 338.51908875 C-143.97363537 334.38251988 -147.9480219 330.15722937 -151.77281189 325.71324158 C-153.42944466 323.79188023 -155.14435437 321.93808108 -156.8984375 320.10546875 C-157.5063916 319.46609375 -158.1143457 318.82671875 -158.74072266 318.16796875 C-159.36253418 317.51441406 -159.9843457 316.86085938 -160.625 316.1875 C-165.61008801 310.90386724 -170.43591721 305.57059015 -174.95703125 299.87890625 C-176.69866205 297.69222498 -178.46365481 295.54177682 -180.26171875 293.40234375 C-217.08437857 249.35306455 -230.04229204 197.10406912 -225.75 140.0703125 C-221.40294949 92.72940715 -205.6845651 49.88640172 -169.25 18 C-164.18671108 13.89899734 -158.82034461 10.36738347 -153.25 7 C-152.66637695 6.63616211 -152.08275391 6.27232422 -151.48144531 5.89746094 C-135.25832607 -4.09377454 -116.05237655 -9.63258318 -97.25 -12 C-96.28223633 -12.13704346 -96.28223633 -12.13704346 -95.29492188 -12.27685547 C-63.15191175 -16.46260957 -30.15089509 -11.30998164 0 0 Z " fill="#000000" transform="translate(2963.25,13)"/>
<path d="M0 0 C0 29.7 0 59.4 0 90 C-3.80764516 88.47694193 -6.44227202 87.10108515 -9.70483398 84.77612305 C-33.60002081 67.78983969 -62.14603003 57.67618394 -91.5234375 62.31640625 C-107.81303733 65.51941745 -120.51111501 73.36255185 -132 85 C-132.7528125 85.75410156 -133.505625 86.50820312 -134.28125 87.28515625 C-141.92675223 95.38644804 -146.75338866 104.52406282 -150.3125 115 C-150.67625732 116.0662561 -150.67625732 116.0662561 -151.04736328 117.15405273 C-154.47167975 127.85171417 -155.36572666 138.50295878 -155.3125 149.6875 C-155.30758545 150.91557373 -155.3026709 152.14364746 -155.29760742 153.40893555 C-154.87243146 186.52687248 -140.63905049 211.96793227 -119.45605469 236.31738281 C-117.91860368 238.09406161 -116.39921142 239.88501574 -114.8828125 241.6796875 C-108.05470488 249.74815501 -108.05470488 249.74815501 -100.68261719 257.31591797 C-98.96878148 259.0312457 -97.40372717 260.81809348 -95.83203125 262.6640625 C-91.92597511 267.15795566 -87.7462094 271.32975141 -83.5 275.5 C-79.4293556 279.49782429 -75.3955608 283.4723328 -71.6875 287.8125 C-66.93368788 293.33778792 -61.68485681 298.38464973 -56.5 303.5 C-50.10095372 309.8132627 -43.8193624 316.13830877 -38 323 C-36.95520065 324.1919268 -35.9083411 325.38205103 -34.859375 326.5703125 C-27.61534588 334.83260175 -20.62716825 343.23430939 -14 352 C-13.484375 352.67901367 -12.96875 353.35802734 -12.4375 354.05761719 C25.54911848 404.39445237 38.9019339 463.58902568 30.80249023 526.00732422 C25.39838569 564.52806145 10.34141753 600.00952805 -17 628 C-17.78632812 628.84820313 -18.57265625 629.69640625 -19.3828125 630.5703125 C-43.47067346 655.93013972 -79.19370989 670.37536436 -113.87109375 671.9453125 C-115.41990234 671.97238281 -115.41990234 671.97238281 -117 672 C-117.95737061 672.02852051 -117.95737061 672.02852051 -118.93408203 672.05761719 C-149.55106104 672.92567934 -178.45750707 667.14830324 -205.75 653.125 C-206.50651855 652.73860352 -207.26303711 652.35220703 -208.04248047 651.95410156 C-209.52549878 651.16714145 -210.98995047 650.34396585 -212.43141174 649.48324585 C-214.99816042 647.94557828 -214.99816042 647.94557828 -217.82777405 646.71566772 C-221.775217 644.56238103 -225.23392024 642.51136579 -226.61198807 637.99377823 C-227.58531876 631.73436762 -227.25960796 625.40278804 -227.07421875 619.09375 C-227.05368408 617.0425637 -227.03803463 614.99132318 -227.02705383 612.94006348 C-226.98519435 607.55950083 -226.87727546 602.18224195 -226.75531006 596.80297852 C-226.6424697 591.306607 -226.59247805 585.80969771 -226.53710938 580.3125 C-226.41938775 569.54022064 -226.23183035 558.77038577 -226 548 C-221.41486255 550.60065225 -216.9671206 553.28457478 -212.5625 556.1875 C-184.56564135 574.28119448 -152.70783358 587.98993042 -118.6875 581.875 C-100.55846698 577.9772579 -84.5477324 568.27500051 -74.3125 552.625 C-73.18960878 550.76115335 -72.08445379 548.88646998 -71 547 C-70.32130859 545.84757813 -70.32130859 545.84757813 -69.62890625 544.671875 C-56.15240993 519.9859565 -55.54042629 486.76200747 -62 460 C-62.16097168 459.30970703 -62.32194336 458.61941406 -62.48779297 457.90820312 C-68.80330583 431.67546769 -83.94515637 411.31222084 -101 391 C-101.53189941 390.36368652 -102.06379883 389.72737305 -102.61181641 389.07177734 C-107.88181044 382.78230482 -113.17313293 376.6162069 -119.0859375 370.91503906 C-120.87571674 369.12434667 -122.51804096 367.28043778 -124.15625 365.3515625 C-128.28676763 360.5980547 -132.71367866 356.17837271 -137.1875 351.75 C-138.04883545 350.89245117 -138.9101709 350.03490234 -139.79760742 349.15136719 C-142.5293112 346.43179111 -145.26423275 343.715488 -148 341 C-151.60711851 337.41961974 -155.21081802 333.83584819 -158.8125 330.25 C-159.62936279 329.44143555 -160.44622559 328.63287109 -161.2878418 327.79980469 C-165.51302016 323.59257228 -169.58148032 319.31647342 -173.45681763 314.7837677 C-176.16125887 311.65769847 -179.0321673 308.68715937 -181.875 305.6875 C-186.75346283 300.4991401 -191.42866551 295.2237869 -195.87109375 289.65234375 C-198.12761569 286.84100724 -200.46804937 284.11328861 -202.8125 281.375 C-235.90735856 241.59950229 -249.36873398 193.52822719 -247 142 C-246.95891113 141.05431152 -246.91782227 140.10862305 -246.87548828 139.13427734 C-244.72905141 94.40198433 -232.87669899 51.65195491 -201 19 C-200.15050781 18.07703125 -199.30101562 17.1540625 -198.42578125 16.203125 C-191.12005242 8.47150166 -182.99838701 2.61189727 -174 -3 C-173.40767578 -3.37253906 -172.81535156 -3.74507812 -172.20507812 -4.12890625 C-155.99094925 -14.10400029 -136.78513701 -19.63475382 -118 -22 C-117.03223633 -22.13704346 -117.03223633 -22.13704346 -116.04492188 -22.27685547 C-76.91363309 -27.37264307 -34.24640536 -19.56937449 0 0 Z " fill="#000000" transform="translate(1446,23)"/>
<path d="M0 0 C0.69512695 0.24717773 1.39025391 0.49435547 2.10644531 0.74902344 C10.17943735 3.79075196 17.43391638 7.77945819 25.25 11.6875 C25.25 41.3875 25.25 71.0875 25.25 101.6875 C20.13427154 98.84542864 15.34788964 96.1566061 10.5 93 C-14.11420192 77.85279882 -40.76167715 68.67046434 -69.75 74.6875 C-83.8852117 78.63364416 -95.38723382 85.34229783 -105.75 95.6875 C-106.79800781 96.71810547 -106.79800781 96.71810547 -107.8671875 97.76953125 C-125.79627181 116.57065274 -130.25298223 141.87990084 -129.96484375 166.90234375 C-129.06095813 200.6717352 -112.70165028 227.21133226 -90.75 251.6875 C-89.92242187 252.61433594 -89.09484375 253.54117187 -88.2421875 254.49609375 C-86.82671638 256.07230481 -85.40707767 257.64479996 -83.98046875 259.2109375 C-82.10197335 261.29669247 -80.25267247 263.40214618 -78.41015625 265.51953125 C-75.00807661 269.41227371 -71.53768454 273.2302426 -68 277 C-67.34459229 277.69859131 -66.68918457 278.39718262 -66.01391602 279.11694336 C-57.91286206 287.67485433 -49.53207964 295.95869271 -41.15527344 304.24536133 C-35.96010676 309.39533531 -30.8495491 314.53625933 -26.10375977 320.11108398 C-24.41661155 322.07572168 -22.61237468 323.88934514 -20.75 325.6875 C-16.86956071 329.52350678 -13.2972552 333.54447028 -9.75 337.6875 C-8.86787901 338.69461652 -7.98500755 339.701076 -7.1015625 340.70703125 C39.53407781 394.08630222 61.90152207 451.13071988 57.97265625 522.33984375 C55.14276029 563.52480481 41.37662444 602.33584379 14.25 633.6875 C13.53199219 634.53957031 12.81398437 635.39164063 12.07421875 636.26953125 C6.67459275 642.51314853 0.7665843 647.64182734 -5.75 652.6875 C-7.08611328 653.78191406 -7.08611328 653.78191406 -8.44921875 654.8984375 C-40.24358077 680.17429015 -82.76922005 686.86888052 -122.26928711 682.66967773 C-148.6546821 679.53338285 -180.34254722 671.09495278 -199.75 651.6875 C-199.84522418 648.82658182 -199.87553326 645.98986379 -199.86352539 643.12866211 C-199.86367142 642.23118759 -199.86381744 641.33371307 -199.8639679 640.40904236 C-199.86326842 637.42761866 -199.85547441 634.4462566 -199.84765625 631.46484375 C-199.84579219 629.40361058 -199.84436823 627.34237696 -199.84336853 625.28114319 C-199.83954237 619.8444599 -199.82971126 614.40780314 -199.81866455 608.97113037 C-199.80845253 603.42802286 -199.80387136 597.88491108 -199.79882812 592.34179688 C-199.78808908 581.45701957 -199.77101149 570.57226198 -199.75 559.6875 C-197.99635803 560.80132383 -196.24299382 561.91558499 -194.48974609 563.0300293 C-193.51331146 563.6504863 -192.53687683 564.2709433 -191.53085327 564.91020203 C-189.31421694 566.32689786 -187.10879879 567.75681113 -184.9140625 569.20703125 C-157.154066 587.32819379 -124.81741473 599.82692111 -91.37792969 593.09814453 C-73.03588941 588.96634892 -57.6458722 578.23524709 -47.4375 562.4375 C-31.99945523 535.57088221 -28.90283634 500.58899057 -36.75 470.6875 C-36.99943359 469.66245361 -36.99943359 469.66245361 -37.25390625 468.61669922 C-44.88012128 437.49750511 -66.29432448 411.60931545 -87.8984375 388.75 C-89.94954131 386.57650039 -91.91079175 384.34439803 -93.85400391 382.07421875 C-98.00907648 377.31672881 -102.44999664 372.87941574 -106.9375 368.4375 C-107.79883545 367.57995117 -108.6601709 366.72240234 -109.54760742 365.83886719 C-112.2793112 363.11929111 -115.01423275 360.402988 -117.75 357.6875 C-121.35711851 354.10711974 -124.96081802 350.52334819 -128.5625 346.9375 C-129.37936279 346.12893555 -130.19622559 345.32037109 -131.0378418 344.48730469 C-135.3069733 340.23630582 -139.41136021 335.9109158 -143.328125 331.33203125 C-145.04279027 329.3488607 -146.86447013 327.5080116 -148.75 325.6875 C-151.9677599 322.51297296 -154.97437296 319.22553285 -157.91796875 315.796875 C-159.90311587 313.51120454 -161.9503983 311.29048622 -164 309.0625 C-169.0931974 303.41588217 -173.74656345 297.46502953 -178.38574219 291.44580078 C-179.6831382 289.77367371 -180.99808788 288.11737005 -182.3203125 286.46484375 C-211.09103745 250.26037342 -221.23712882 208.11335244 -221.0625 162.5625 C-221.06067719 161.5737085 -221.05885437 160.58491699 -221.05697632 159.56616211 C-221.01104717 144.75513294 -220.62060654 130.26458006 -217.75 115.6875 C-217.57839355 114.79853027 -217.40678711 113.90956055 -217.22998047 112.99365234 C-211.22384771 82.96298853 -198.47987463 55.33446669 -177.75 32.6875 C-177.27691406 32.16913574 -176.80382812 31.65077148 -176.31640625 31.11669922 C-132.10928591 -16.66952063 -58.36953765 -20.95746633 0 0 Z " fill="#000000" transform="translate(220.75,11.3125)"/>
<path d="M0 0 C98.34 0 196.68 0 298 0 C298 26.73 298 53.46 298 81 C264.34 81 230.68 81 196 81 C196 277.68 196 474.36 196 677 C166.3 677 136.6 677 106 677 C106 480.32 106 283.64 106 81 C71.02 81 36.04 81 0 81 C0 54.27 0 27.54 0 0 Z " fill="#000000" transform="translate(1528,9)"/>
</svg>
